<svg width="183" height="25" viewBox="0 0 183 25" fill="none" xmlns="http://www.w3.org/2000/svg">
<path d="M0.578125 2.03125L0.703125 1.92188C3.28646 2.00521 4.77604 2.04688 5.17188 2.04688C5.52604 2.04688 7.02083 2.00521 9.65625 1.92188L9.78125 2.03125V2.8125L9.65625 2.92188C8.9375 2.94271 8.38021 2.97396 7.98438 3.01562C7.59896 3.05729 7.31771 3.13542 7.14062 3.25C6.96354 3.36458 6.84375 3.63542 6.78125 4.0625C6.72917 4.47917 6.70312 5.0625 6.70312 5.8125L6.67188 9.40625V16.3125C6.67188 18.0417 6.68229 19.25 6.70312 19.9375L6.78125 22.6406H9.96875C12.5104 22.6406 14.0938 22.6094 14.7188 22.5469C15.3542 22.4844 15.9635 22.3333 16.5469 22.0938C16.6615 21.8333 16.8229 21.2344 17.0312 20.2969C17.25 19.3594 17.3646 18.8177 17.375 18.6719L17.5156 18.5469H18.2812L18.3906 18.6719C18.3073 19.0885 18.2188 19.8958 18.125 21.0938C18.0417 22.2917 18 23.2604 18 24L17.875 24.125C15.8958 24.0625 13.2969 24.0312 10.0781 24.0312L5.51562 24C4.47396 24 3.41146 24.0417 2.32812 24.125L2.20312 24V23.4844L2.32812 23.3281C2.97396 22.9948 3.32812 22.7917 3.39062 22.7188C3.45312 22.6458 3.51562 21.974 3.57812 20.7031C3.65104 19.4323 3.6875 17.901 3.6875 16.1094V9.40625L3.65625 6.35938C3.64583 5.17188 3.61458 4.40625 3.5625 4.0625C3.52083 3.71875 3.44792 3.48958 3.34375 3.375C3.25 3.26042 3.0625 3.16667 2.78125 3.09375C2.5 3.02083 1.80729 2.96354 0.703125 2.92188L0.578125 2.8125V2.03125ZM20.4844 1.92188L22.4375 1.98438C23.7188 2.02604 24.5573 2.04688 24.9531 2.04688C25.3073 2.04688 26.8021 2.00521 29.4375 1.92188L29.5625 2.03125V2.8125L29.4375 2.92188C28.7188 2.94271 28.1615 2.97396 27.7656 3.01562C27.3802 3.05729 27.099 3.13542 26.9219 3.25C26.7448 3.36458 26.625 3.63542 26.5625 4.0625C26.5104 4.47917 26.4844 5.0625 26.4844 5.8125L26.4531 9.40625V16.6406L26.4688 19.6875C26.4792 20.8646 26.5104 21.625 26.5625 21.9688C26.6146 22.3125 26.6875 22.5417 26.7812 22.6562C26.8854 22.7708 27.0781 22.8698 27.3594 22.9531C27.6406 23.026 28.3333 23.0833 29.4375 23.125L29.5625 23.2188V24L29.4375 24.125C29.3854 24.125 28.4688 24.0938 26.6875 24.0312C25.9479 24.0104 25.3698 24 24.9531 24C24.6302 24 23.1406 24.0417 20.4844 24.125L20.3594 24V23.2188L20.4844 23.125C21.4531 23.0833 22.099 23.0312 22.4219 22.9688C22.7448 22.9062 22.9583 22.8281 23.0625 22.7344C23.1771 22.6302 23.2656 22.4167 23.3281 22.0938C23.401 21.7708 23.4427 21.0521 23.4531 19.9375L23.4688 16.6406V9.40625L23.4375 6.35938C23.4271 5.17188 23.3958 4.40625 23.3438 4.0625C23.3021 3.71875 23.2292 3.48958 23.125 3.375C23.0312 3.26042 22.8438 3.16667 22.5625 3.09375C22.2812 3.02083 21.5885 2.96354 20.4844 2.92188L20.3594 2.8125V2.03125L20.4844 1.92188ZM53.75 15.4844V15.9531L53.6875 16.1406L52.9219 16.5938C52.7344 16.7083 52.625 16.7969 52.5938 16.8594C52.5625 16.9219 52.5208 17.2344 52.4688 17.7969C52.4271 18.349 52.4062 19.026 52.4062 19.8281C52.4062 20.7344 52.4635 21.7188 52.5781 22.7812L52.4844 22.9375C49.6302 24.0312 46.6979 24.5781 43.6875 24.5781C41.375 24.5781 39.2865 24.1406 37.4219 23.2656C35.5573 22.3906 34.0781 21.0938 32.9844 19.375C31.8906 17.6562 31.3438 15.6146 31.3438 13.25C31.3438 9.64583 32.5729 6.78125 35.0312 4.65625C37.5 2.53125 40.7188 1.46875 44.6875 1.46875C47.6042 1.46875 50.224 1.96354 52.5469 2.95312L52.6562 3.125C52.4688 3.82292 52.25 5.28646 52 7.51562L51.875 7.625H51.1562L51.0312 7.5L50.9531 5.84375C50.9219 5.30208 50.8854 4.98438 50.8438 4.89062C50.8125 4.79688 50.7031 4.67708 50.5156 4.53125C50.3281 4.375 49.8438 4.13542 49.0625 3.8125C48.2917 3.47917 47.5156 3.23958 46.7344 3.09375C45.9531 2.9375 45.1146 2.85938 44.2188 2.85938C42.3125 2.85938 40.625 3.25521 39.1562 4.04688C37.6875 4.83854 36.5781 5.99479 35.8281 7.51562C35.0885 9.02604 34.7188 10.7083 34.7188 12.5625C34.7188 14.4792 35.1198 16.2656 35.9219 17.9219C36.724 19.5677 37.875 20.8542 39.375 21.7812C40.875 22.7083 42.6198 23.1719 44.6094 23.1719C45.474 23.1719 46.3542 23.0885 47.25 22.9219C48.1562 22.7448 48.901 22.5 49.4844 22.1875C49.5781 21.8542 49.625 21.1823 49.625 20.1719V18.4375C49.625 17.6146 49.5729 17.1042 49.4688 16.9062C49.3646 16.6979 49.1042 16.5521 48.6875 16.4688C48.2812 16.3854 47.3958 16.3333 46.0312 16.3125L45.8906 16.1719V15.4844L46.0312 15.3438L46.9844 15.375C48.6198 15.4271 49.9531 15.4531 50.9844 15.4531C51.5781 15.4531 52.4479 15.4219 53.5938 15.3594L53.75 15.4844ZM55.7031 1.92188C58.3594 2.00521 59.849 2.04688 60.1719 2.04688C60.5156 2.04688 62.0104 2.00521 64.6562 1.92188L64.7812 2.03125V2.8125L64.6562 2.92188C63.9375 2.94271 63.3802 2.97396 62.9844 3.01562C62.599 3.05729 62.3177 3.13542 62.1406 3.25C61.9635 3.36458 61.8438 3.63542 61.7812 4.0625C61.7292 4.47917 61.7031 5.0625 61.7031 5.8125L61.6719 9.40625V11.5938C63.9531 11.6562 66.1146 11.6875 68.1562 11.6875C70.9479 11.6875 73.0729 11.6562 74.5312 11.5938V9.40625L74.5 6.35938C74.4896 5.17188 74.4583 4.40625 74.4062 4.0625C74.3542 3.71875 74.2812 3.48958 74.1875 3.375C74.0938 3.26042 73.9062 3.16667 73.625 3.09375C73.3438 3.02083 72.6458 2.96354 71.5312 2.92188L71.4219 2.8125V2.03125L71.5312 1.92188C74.1979 2.00521 75.6927 2.04688 76.0156 2.04688C76.3698 2.04688 77.8646 2.00521 80.5 1.92188L80.625 2.03125V2.8125L80.5 2.92188C79.7708 2.94271 79.2083 2.97396 78.8125 3.01562C78.4271 3.05729 78.1458 3.13542 77.9688 3.25C77.7917 3.36458 77.6771 3.63542 77.625 4.0625C77.5729 4.47917 77.5417 5.0625 77.5312 5.8125L77.5 9.40625V16.6406L77.5312 19.6875C77.5417 20.8646 77.5729 21.625 77.625 21.9688C77.6771 22.3125 77.75 22.5417 77.8438 22.6562C77.9479 22.7708 78.1354 22.8698 78.4062 22.9531C78.6875 23.026 79.3854 23.0833 80.5 23.125L80.625 23.2188V24L80.5 24.125C77.8333 24.0417 76.3385 24 76.0156 24C75.6823 24 74.1875 24.0417 71.5312 24.125L71.4219 24V23.2188L71.5312 23.125C72.5104 23.0833 73.1615 23.0312 73.4844 22.9688C73.8073 22.9062 74.0208 22.8281 74.125 22.7344C74.2292 22.6302 74.3177 22.4167 74.3906 22.0938C74.4635 21.7708 74.5 21.0521 74.5 19.9375L74.5312 16.6406V13.0781C71.4479 13.0156 69.2865 12.9844 68.0469 12.9844C66.776 12.9844 64.651 13.0156 61.6719 13.0781V16.6406L61.6875 19.6875C61.6979 20.8646 61.7292 21.625 61.7812 21.9688C61.8333 22.3125 61.9062 22.5417 62 22.6562C62.1042 22.7708 62.2969 22.8698 62.5781 22.9531C62.8594 23.026 63.5521 23.0833 64.6562 23.125L64.7812 23.2188V24L64.6562 24.125C62 24.0417 60.5052 24 60.1719 24C59.849 24 58.3594 24.0417 55.7031 24.125L55.5781 24V23.2188L55.7031 23.125C56.6719 23.0833 57.3177 23.0312 57.6406 22.9688C57.9635 22.9062 58.1771 22.8281 58.2812 22.7344C58.3958 22.6302 58.4844 22.4167 58.5469 22.0938C58.6198 21.7708 58.6615 21.0521 58.6719 19.9375L58.6875 16.6406V9.40625L58.6562 6.35938C58.6458 5.17188 58.6146 4.40625 58.5625 4.0625C58.5208 3.71875 58.4479 3.48958 58.3438 3.375C58.25 3.26042 58.0625 3.16667 57.7812 3.09375C57.5 3.02083 56.8073 2.96354 55.7031 2.92188L55.5781 2.8125V2.03125L55.7031 1.92188ZM100.266 1.92188L100.406 2.0625C100.312 3 100.266 4.63542 100.266 6.96875L100.141 7.09375H99.4062L99.2812 6.95312L99.1094 5.51562C99.026 4.74479 98.9583 4.27604 98.9062 4.10938C98.8646 3.93229 98.7917 3.80729 98.6875 3.73438C98.5833 3.65104 98.2448 3.58333 97.6719 3.53125C97.099 3.47917 96.4583 3.45312 95.75 3.45312H92.7969C92.7135 5.80729 92.6719 7.16667 92.6719 7.53125V16.6406L92.7031 19.6875C92.7135 20.8646 92.7396 21.6302 92.7812 21.9844C92.8333 22.3281 92.9062 22.5573 93 22.6719C93.1042 22.776 93.2969 22.8698 93.5781 22.9531C93.8594 23.026 94.5573 23.0833 95.6719 23.125L95.7812 23.2188V24L95.6719 24.125C93.0052 24.0417 91.5156 24 91.2031 24C90.8698 24 89.3854 24.0417 86.75 24.125L86.625 24V23.2188L86.75 23.125C87.7292 23.0833 88.375 23.0312 88.6875 22.9688C89.0104 22.9062 89.224 22.8281 89.3281 22.7344C89.4427 22.6302 89.5365 22.4167 89.6094 22.0938C89.6823 21.7708 89.7188 21.0521 89.7188 19.9375L89.75 16.6406V7.53125C89.75 7.36458 89.7083 6.00521 89.625 3.45312H87.2969C86.3385 3.45312 85.5104 3.47396 84.8125 3.51562C84.1146 3.55729 83.7083 3.66667 83.5938 3.84375C83.4896 4.01042 83.3906 4.56771 83.2969 5.51562L83.1406 6.95312L83 7.09375H82.2812L82.1562 6.96875C82.1354 4.45833 82.0885 2.82292 82.0156 2.0625L82.1562 1.92188C83.9688 2.00521 86.9844 2.04688 91.2031 2.04688C95.5052 2.04688 98.526 2.00521 100.266 1.92188ZM101.609 2.03125L101.734 1.92188C104.318 2.00521 105.807 2.04688 106.203 2.04688C106.557 2.04688 108.052 2.00521 110.688 1.92188L110.812 2.03125V2.8125L110.688 2.92188C109.969 2.94271 109.411 2.97396 109.016 3.01562C108.63 3.05729 108.349 3.13542 108.172 3.25C107.995 3.36458 107.875 3.63542 107.812 4.0625C107.76 4.47917 107.734 5.0625 107.734 5.8125L107.703 9.40625V16.3125C107.703 18.0417 107.714 19.25 107.734 19.9375L107.812 22.6406H111C113.542 22.6406 115.125 22.6094 115.75 22.5469C116.385 22.4844 116.995 22.3333 117.578 22.0938C117.693 21.8333 117.854 21.2344 118.062 20.2969C118.281 19.3594 118.396 18.8177 118.406 18.6719L118.547 18.5469H119.312L119.422 18.6719C119.339 19.0885 119.25 19.8958 119.156 21.0938C119.073 22.2917 119.031 23.2604 119.031 24L118.906 24.125C116.927 24.0625 114.328 24.0312 111.109 24.0312L106.547 24C105.505 24 104.443 24.0417 103.359 24.125L103.234 24V23.4844L103.359 23.3281C104.005 22.9948 104.359 22.7917 104.422 22.7188C104.484 22.6458 104.547 21.974 104.609 20.7031C104.682 19.4323 104.719 17.901 104.719 16.1094V9.40625L104.688 6.35938C104.677 5.17188 104.646 4.40625 104.594 4.0625C104.552 3.71875 104.479 3.48958 104.375 3.375C104.281 3.26042 104.094 3.16667 103.812 3.09375C103.531 3.02083 102.839 2.96354 101.734 2.92188L101.609 2.8125V2.03125ZM121.734 2.03125L121.859 1.92188C125.432 1.98438 127.719 2.01562 128.719 2.01562C132.135 2.01562 135.177 1.98438 137.844 1.92188L137.922 2.03125C137.661 3.03125 137.469 4.59896 137.344 6.73438L137.25 6.85938H136.484L136.344 6.73438C136.354 6.64062 136.359 6.55729 136.359 6.48438C136.359 5.59896 136.292 4.75521 136.156 3.95312C135.5 3.66146 134.589 3.47396 133.422 3.39062C132.266 3.29688 131.396 3.25 130.812 3.25C129.99 3.25 128.938 3.30729 127.656 3.42188L127.594 5.92188L127.547 8.78125L127.5 11.9531C128.625 12.0156 129.661 12.0469 130.609 12.0469C131.568 12.0469 132.37 12.0156 133.016 11.9531C133.661 11.8906 134.036 11.8281 134.141 11.7656C134.255 11.6927 134.339 11.5625 134.391 11.375C134.453 11.1771 134.505 10.8333 134.547 10.3438L134.609 9.375L134.734 9.25H135.453L135.578 9.375C135.557 10.5104 135.531 11.651 135.5 12.7969L135.578 16.3125L135.453 16.4375H134.734L134.609 16.3125L134.5 15.375C134.406 14.6458 134.339 14.2135 134.297 14.0781C134.255 13.9323 134.156 13.8073 134 13.7031C133.854 13.599 133.469 13.5156 132.844 13.4531C132.219 13.3906 131.359 13.3594 130.266 13.3594C129.661 13.3594 128.74 13.3854 127.5 13.4375C127.448 14.3125 127.422 15.7708 127.422 17.8125C127.422 20 127.448 21.6094 127.5 22.6406H130.375C132.906 22.6406 134.49 22.6094 135.125 22.5469C135.76 22.4844 136.365 22.3333 136.938 22.0938C137.031 21.8542 137.182 21.3021 137.391 20.4375C137.609 19.5625 137.734 19.0156 137.766 18.7969L137.922 18.6875H138.672L138.797 18.7969C138.703 19.2448 138.609 20.026 138.516 21.1406C138.432 22.2552 138.391 23.2083 138.391 24L138.281 24.125C136.292 24.0625 133.688 24.0312 130.469 24.0312L126.219 24C125.229 24 124.198 24.0417 123.125 24.125L123 24V23.4844L123.125 23.3281C123.74 23.0156 124.089 22.8229 124.172 22.75C124.266 22.6667 124.339 21.7552 124.391 20.0156C124.453 18.2656 124.484 16.9323 124.484 16.0156V10.2812L124.469 6.73438C124.469 5.96354 124.458 5.33854 124.438 4.85938C124.417 4.36979 124.38 4.02083 124.328 3.8125C124.276 3.60417 124.214 3.45833 124.141 3.375C124.078 3.29167 123.969 3.22396 123.812 3.17188C123.667 3.10938 123.411 3.05729 123.047 3.01562L121.859 2.92188L121.734 2.8125V2.03125ZM141.188 24.1094L141.047 23.9688V23.25L141.188 23.125C141.823 23.1146 142.328 23.0781 142.703 23.0156C143.089 22.9531 143.333 22.849 143.438 22.7031C143.552 22.5573 143.625 22.3229 143.656 22C143.698 21.6771 143.734 20.9479 143.766 19.8125C143.807 18.6771 143.828 17.8646 143.828 17.375V4.75C143.828 4.21875 143.729 3.82812 143.531 3.57812C143.344 3.31771 143.083 3.15625 142.75 3.09375C142.417 3.02083 141.849 2.97917 141.047 2.96875L140.922 2.84375V2.10938L141.047 1.96875C142.484 2.02083 143.427 2.04688 143.875 2.04688C144.927 2.04688 145.792 2.02083 146.469 1.96875L151.453 8.4375L158.781 17.625C159.667 18.7396 160.568 19.7969 161.484 20.7969V8.70312C161.484 8.32812 161.464 7.53125 161.422 6.3125C161.391 5.08333 161.349 4.30729 161.297 3.98438C161.245 3.65104 161.151 3.42708 161.016 3.3125C160.891 3.19792 160.646 3.11458 160.281 3.0625C159.927 3 159.443 2.96354 158.828 2.95312L158.703 2.82812V2.10938L158.828 1.96875C159.672 2.02083 160.875 2.04688 162.438 2.04688C163.865 2.04688 164.901 2.02083 165.547 1.96875L165.688 2.10938V2.82812L165.562 2.95312C164.875 2.96354 164.344 3.00521 163.969 3.07812C163.594 3.14062 163.359 3.25 163.266 3.40625C163.172 3.5625 163.104 3.79167 163.062 4.09375C163.031 4.39583 162.995 5.11458 162.953 6.25C162.922 7.38542 162.906 8.20312 162.906 8.70312V16.125L162.922 20.4219C162.943 21.8281 162.964 23.2396 162.984 24.6562C162.464 24.4792 161.562 24.2604 160.281 24L159.172 22.6875L155.844 18.625L145.25 5.39062V17.375C145.25 17.8542 145.266 18.7083 145.297 19.9375C145.339 21.1667 145.385 21.9115 145.438 22.1719C145.49 22.4323 145.557 22.6146 145.641 22.7188C145.724 22.8125 145.901 22.901 146.172 22.9844C146.453 23.0677 147.026 23.1146 147.891 23.125L148.016 23.25V23.9844L147.891 24.1094C147.349 24.0365 146.474 24 145.266 24C143.714 24 142.354 24.0365 141.188 24.1094ZM167.984 18.625L168.109 18.5H168.875L169 18.625C169.052 19.9583 169.12 20.776 169.203 21.0781C169.297 21.3698 169.578 21.6823 170.047 22.0156C170.526 22.3385 171.156 22.6042 171.938 22.8125C172.729 23.0208 173.526 23.125 174.328 23.125C175.432 23.125 176.422 22.9219 177.297 22.5156C178.182 22.1094 178.87 21.5156 179.359 20.7344C179.849 19.9427 180.094 19.0573 180.094 18.0781C180.094 17.3906 179.974 16.7917 179.734 16.2812C179.505 15.7708 179.177 15.3646 178.75 15.0625C178.333 14.75 177.854 14.5208 177.312 14.375C176.771 14.2188 175.964 14.0521 174.891 13.875C173.849 13.7083 173.031 13.5573 172.438 13.4219C171.854 13.2865 171.271 13.0781 170.688 12.7969C170.104 12.5156 169.615 12.1615 169.219 11.7344C168.833 11.2969 168.521 10.7656 168.281 10.1406C168.052 9.50521 167.938 8.82812 167.938 8.10938C167.938 6.16146 168.615 4.56771 169.969 3.32812C171.323 2.07812 173.141 1.45312 175.422 1.45312C176.328 1.45312 177.312 1.56771 178.375 1.79688C179.448 2.01562 180.422 2.34375 181.297 2.78125L181.406 2.96875C181.177 3.92708 181.036 5.29167 180.984 7.0625L180.844 7.1875H180.031L179.906 7.07812C179.885 5.82812 179.854 5.04167 179.812 4.71875C179.771 4.39583 179.297 3.99479 178.391 3.51562C177.484 3.03646 176.5 2.79688 175.438 2.79688C174.552 2.79688 173.724 2.97396 172.953 3.32812C172.182 3.68229 171.599 4.23958 171.203 5C170.807 5.76042 170.609 6.53646 170.609 7.32812C170.609 7.94271 170.729 8.48958 170.969 8.96875C171.208 9.4375 171.516 9.8125 171.891 10.0938C172.276 10.3646 172.719 10.5677 173.219 10.7031C173.729 10.8385 174.656 11.0052 176 11.2031C177.844 11.4635 179.182 11.7812 180.016 12.1562C180.859 12.5208 181.531 13.1042 182.031 13.9062C182.542 14.7083 182.797 15.6771 182.797 16.8125C182.797 19.0312 181.891 20.8802 180.078 22.3594C178.276 23.8385 176.089 24.5781 173.516 24.5781C171.359 24.5781 169.469 24.1927 167.844 23.4219L167.75 23.2188C167.854 22.5625 167.932 21.0312 167.984 18.625Z" fill="white"/>
</svg>
