<svg xmlns="http://www.w3.org/2000/svg" xml:space="preserve" width="2000" height="361" data-id="lg_BFuevqunYJ7yz3NQb7" data-version="1"><g data-padding="20"><g fill="#fff" transform="translate(10 10)scale(.9446)"><circle cx="466.233" cy="-91.806" r="130" stroke="#fff" stroke-width="9" transform="translate(400 308.11)scale(1.39)"/><path d="M1150.42 134.058c-28.827-13.365-50.706-7.825-51.645-7.574q-23.663 6.573-31.895 22.598-1.44 2.88-2.285 5.76c-12.833-4.852-25.634-1.847-31.613.156q-.876-2.942-2.347-5.947-8.232-15.994-31.926-22.598c-.94-.22-22.786-5.728-51.645 7.637l-34.806 9.202.126 17.465s9.703 2.003 9.703 18.874v1.628l7.605 5.32a51.33 51.33 0 0 0 51.489 49.33 51.33 51.33 0 0 0 51.551-51.02q0-3.286-.47-6.541l.282.094c.157-.407 2.817-7.825 1.722-17.215 4.883-1.722 17.215-5.008 29.046-.125-1.127 9.452 1.565 16.902 1.722 17.34l.313-.094q-.501 3.224-.501 6.573c0 28.107 23.162 50.988 51.582 50.988a51.33 51.33 0 0 0 51.457-49.33l7.638-5.32v-1.628c0-16.902 9.797-18.717 9.797-18.717v-17.622Zm-169.302 95.59a45.07 45.07 0 0 1-45.29-44.758c0-24.665 20.344-44.76 45.29-44.76s45.323 20.095 45.323 44.76-20.345 44.759-45.323 44.759m0-95.778a51.426 51.426 0 0 0-51.206 45.29l-1.66-1.157c-.375-15.024-6.197-20.22-9.765-22.036v-7.825l30.987-8.263c26.793-12.488 47.45-7.387 47.576-7.355q20.971 5.884 27.95 19.343a29.7 29.7 0 0 1 3.194 12.301 51.65 51.65 0 0 0-47.076-30.236m135.279 95.778a45.07 45.07 0 0 1-45.322-44.821c0-24.665 20.345-44.76 45.322-44.76a45.07 45.07 0 0 1 45.291 44.76c0 24.664-20.345 44.759-45.322 44.759m62.6-73.712c-3.569 1.815-9.36 7.043-9.766 22.035l-1.628 1.158a51.426 51.426 0 0 0-51.206-45.228 51.65 51.65 0 0 0-47.076 30.204c.188-3.756 1.002-8.044 3.193-12.27 4.601-8.951 13.991-15.461 27.888-19.311.22-.063 20.72-5.227 47.639 7.324l30.987 8.263Z"/></g><path fill="transparent" stroke="transparent" d="M819.5 0h361v361h-361z"/></g></svg>