<svg xmlns="http://www.w3.org/2000/svg" xml:space="preserve" width="1500" height="1500" data-id="lg_ZXw8tJDUwPb3okz4En" data-version="1"><path fill="#fff" stroke="transparent" d="M0 0h1500v1500H0z"/><g data-padding="20"><g transform="translate(-1299.861 -1299.861)scale(2.61662)"><circle cx="275.829" cy="341.937" r="130" fill="none" stroke="#244b76" stroke-width="9" transform="translate(400 308.11)scale(1.39)"/><path fill="#244b76" d="M885.757 736.96c-28.827-13.365-50.706-7.825-51.645-7.574q-23.663 6.573-31.894 22.598-1.44 2.88-2.285 5.76c-12.833-4.852-25.635-1.847-31.613.156q-.877-2.942-2.348-5.947-8.232-15.994-31.926-22.599c-.939-.219-22.786-5.728-51.645 7.637l-34.805 9.203.125 17.465s9.703 2.003 9.703 18.874v1.628l7.606 5.32a51.33 51.33 0 0 0 51.488 49.33 51.33 51.33 0 0 0 51.551-51.02q0-3.286-.47-6.541l.282.094c.157-.407 2.817-7.825 1.722-17.215 4.883-1.722 17.215-5.008 29.046-.126-1.126 9.453 1.565 16.902 1.722 17.34l.313-.093q-.5 3.224-.5 6.573c0 28.107 23.161 50.987 51.581 50.987a51.33 51.33 0 0 0 51.458-49.328l7.637-5.321v-1.628c0-16.902 9.797-18.717 9.797-18.717v-17.622Zm-169.301 95.59a45.07 45.07 0 0 1-45.292-44.759c0-24.664 20.345-44.759 45.292-44.759s45.322 20.095 45.322 44.76-20.345 44.758-45.322 44.758m0-95.778a51.426 51.426 0 0 0-51.207 45.291l-1.66-1.158c-.375-15.024-6.197-20.22-9.765-22.035v-7.825l30.987-8.263c26.793-12.489 47.451-7.387 47.576-7.356q20.971 5.885 27.951 19.344a29.7 29.7 0 0 1 3.193 12.3 51.65 51.65 0 0 0-47.075-30.235m135.278 95.778a45.07 45.07 0 0 1-45.322-44.822c0-24.664 20.345-44.759 45.322-44.759a45.07 45.07 0 0 1 45.291 44.76c0 24.664-20.345 44.758-45.322 44.758m62.6-73.711c-3.568 1.815-9.359 7.042-9.766 22.035l-1.627 1.158a51.426 51.426 0 0 0-51.207-45.228 51.65 51.65 0 0 0-47.075 30.204c.187-3.756 1.001-8.044 3.192-12.27 4.601-8.951 13.991-15.462 27.889-19.312.219-.062 20.72-5.227 47.638 7.325l30.987 8.263Z"/></g><path fill="transparent" stroke="transparent" stroke-width="2.77" d="M250 250h1000v1000H250z"/></g></svg>