<svg width="29" height="29" viewBox="0 0 29 29" fill="none" xmlns="http://www.w3.org/2000/svg">
<path d="M22.5667 23.073C23.3094 23.073 24.0215 23.368 24.5466 23.8931C25.0717 24.4182 25.3667 25.1304 25.3667 25.873C25.3667 26.6156 25.0717 27.3278 24.5466 27.8529C24.0215 28.378 23.3094 28.673 22.5667 28.673C21.0127 28.673 19.7667 27.413 19.7667 25.873C19.7667 24.319 21.0127 23.073 22.5667 23.073ZM0.166748 0.673035H4.74475L6.06075 3.47303H26.7667C27.1381 3.47303 27.4941 3.62053 27.7567 3.88309C28.0192 4.14564 28.1667 4.50173 28.1667 4.87303C28.1667 5.11103 28.0967 5.34903 27.9987 5.57303L22.9867 14.631C22.5107 15.485 21.5867 16.073 20.5367 16.073H10.1067L8.84675 18.355L8.80475 18.523C8.80475 18.6159 8.84162 18.7049 8.90726 18.7705C8.9729 18.8362 9.06192 18.873 9.15475 18.873H25.3667V21.673H8.56675C7.01275 21.673 5.76675 20.413 5.76675 18.873C5.76675 18.383 5.89275 17.921 6.10275 17.529L8.00675 14.099L2.96675 3.47303H0.166748V0.673035ZM8.56675 23.073C9.30935 23.073 10.0215 23.368 10.5466 23.8931C11.0717 24.4182 11.3667 25.1304 11.3667 25.873C11.3667 26.6156 11.0717 27.3278 10.5466 27.8529C10.0215 28.378 9.30935 28.673 8.56675 28.673C7.01275 28.673 5.76675 27.413 5.76675 25.873C5.76675 24.319 7.01275 23.073 8.56675 23.073ZM21.1667 13.273L25.0587 6.27303H7.36275L10.6667 13.273H21.1667Z" fill="black"/>
</svg>
