<svg width="28" height="28" viewBox="0 0 28 28" fill="none" xmlns="http://www.w3.org/2000/svg">
<path d="M14 1.5C15.4587 1.5 16.8576 2.07946 17.8891 3.11091C18.9205 4.14236 19.5 5.54131 19.5 7C19.5 8.45869 18.9205 9.85764 17.8891 10.8891C16.8576 11.9205 15.4587 12.5 14 12.5C12.5413 12.5 11.1424 11.9205 10.1109 10.8891C9.07946 9.85764 8.5 8.45869 8.5 7C8.5 5.54131 9.07946 4.14236 10.1109 3.11091C11.1424 2.07946 12.5413 1.5 14 1.5ZM14 19C17.6853 19 20.946 19.7494 23.2298 20.8913C25.6029 22.0779 26.5 23.4401 26.5 24.5V26.5H1.5V24.5C1.5 23.4401 2.39706 22.0779 4.7702 20.8913C7.054 19.7494 10.3147 19 14 19Z" stroke="black" stroke-width="3"/>
</svg>
