<svg width="33" height="41" viewBox="0 0 33 41" fill="none" xmlns="http://www.w3.org/2000/svg">
<path d="M29.6912 35C28.0312 37.48 26.2712 39.9 23.5912 39.94C20.9112 40 20.0512 38.36 17.0112 38.36C13.9512 38.36 13.0112 39.9 10.4712 40C7.85118 40.1 5.87118 37.36 4.19118 34.94C0.77118 30 -1.84882 20.9 1.67118 14.78C3.41118 11.74 6.53118 9.82 9.91118 9.76C12.4712 9.72 14.9112 11.5 16.4912 11.5C18.0512 11.5 21.0112 9.36 24.1112 9.68C25.4112 9.74 29.0512 10.2 31.3912 13.64C31.2112 13.76 27.0512 16.2 27.0912 21.26C27.1512 27.3 32.3912 29.32 32.4512 29.34C32.3912 29.48 31.6112 32.22 29.6912 35ZM18.2712 3C19.7312 1.34 22.1512 0.08 24.1512 0C24.4112 2.34 23.4712 4.7 22.0712 6.38C20.6912 8.08 18.4112 9.4 16.1712 9.22C15.8712 6.92 16.9912 4.52 18.2712 3Z" fill="white"/>
</svg>
