<svg width="24" height="24" viewBox="0 0 24 24" fill="none" xmlns="http://www.w3.org/2000/svg">
<path d="M21.9588 20.9986C20.7311 22.4865 19.4294 23.9384 17.4474 23.9624C15.4653 23.9984 14.8293 23.0145 12.581 23.0145C10.3179 23.0145 9.62271 23.9384 7.7442 23.9984C5.80652 24.0584 4.34216 22.4145 3.09968 20.9626C0.570344 17.9988 -1.36734 12.5392 1.23596 8.86741C2.52281 7.04353 4.83028 5.89161 7.33004 5.85561C9.22334 5.83161 11.0279 6.89954 12.1964 6.89954C13.3502 6.89954 15.5393 5.61563 17.832 5.80761C18.7934 5.84361 21.4855 6.11959 23.2161 8.18346C23.0829 8.25545 20.0063 9.71935 20.0359 12.7552C20.0803 16.3789 23.9556 17.5908 24 17.6028C23.9556 17.6868 23.3788 19.3307 21.9588 20.9986ZM13.5129 1.79988C14.5926 0.803947 16.3824 0.0479968 17.8615 0C18.0538 1.40391 17.3586 2.81981 16.3232 3.82775C15.3026 4.84768 13.6164 5.63963 11.9598 5.53163C11.7379 4.15172 12.5662 2.71182 13.5129 1.79988Z" fill="white"/>
</svg>
