<svg width="29" height="29" viewBox="0 0 29 29" fill="none" xmlns="http://www.w3.org/2000/svg">
<path d="M22.5667 22.7333C23.3094 22.7333 24.0215 23.0283 24.5466 23.5534C25.0717 24.0785 25.3667 24.7907 25.3667 25.5333C25.3667 26.2759 25.0717 26.9881 24.5466 27.5132C24.0215 28.0383 23.3094 28.3333 22.5667 28.3333C21.0127 28.3333 19.7667 27.0733 19.7667 25.5333C19.7667 23.9793 21.0127 22.7333 22.5667 22.7333ZM0.166748 0.333344H4.74475L6.06075 3.13334H26.7667C27.1381 3.13334 27.4941 3.28084 27.7567 3.54339C28.0192 3.80595 28.1667 4.16204 28.1667 4.53334C28.1667 4.77134 28.0967 5.00934 27.9987 5.23334L22.9867 14.2913C22.5107 15.1453 21.5867 15.7333 20.5367 15.7333H10.1067L8.84675 18.0153L8.80475 18.1833C8.80475 18.2762 8.84162 18.3652 8.90726 18.4308C8.9729 18.4965 9.06192 18.5333 9.15475 18.5333H25.3667V21.3333H8.56675C7.01275 21.3333 5.76675 20.0733 5.76675 18.5333C5.76675 18.0433 5.89275 17.5813 6.10275 17.1893L8.00675 13.7593L2.96675 3.13334H0.166748V0.333344ZM8.56675 22.7333C9.30935 22.7333 10.0215 23.0283 10.5466 23.5534C11.0717 24.0785 11.3667 24.7907 11.3667 25.5333C11.3667 26.2759 11.0717 26.9881 10.5466 27.5132C10.0215 28.0383 9.30935 28.3333 8.56675 28.3333C7.01275 28.3333 5.76675 27.0733 5.76675 25.5333C5.76675 23.9793 7.01275 22.7333 8.56675 22.7333ZM21.1667 12.9333L25.0587 5.93334H7.36275L10.6667 12.9333H21.1667Z" fill="black"/>
</svg>
