<svg width="24" height="24" viewBox="0 0 24 24" fill="none" xmlns="http://www.w3.org/2000/svg">
<path fill-rule="evenodd" clip-rule="evenodd" d="M0.416523 0.3663C0.104451 0.649035 0 1.21335 0 1.68419V22.3158C0 22.7872 0.208262 23.258 0.416523 23.6348L0.520975 23.7289L13.4319 12.1419V11.8592L0.417164 0.365723L0.416523 0.3663Z" fill="url(#paint0_linear_59_9)"/>
<path fill-rule="evenodd" clip-rule="evenodd" d="M17.7007 15.9098L13.4317 12.0473V11.7646L17.7007 7.90265L17.8045 7.99728L22.9066 10.6348C24.3645 11.3884 24.3645 12.6134 22.9066 13.3669L17.7007 15.9104V15.9098Z" fill="url(#paint1_linear_59_9)"/>
<path fill-rule="evenodd" clip-rule="evenodd" d="M17.8047 15.9097L13.3281 11.9532L0.41713 23.6336C1.04191 24.105 1.97877 24.105 2.60356 23.7282L17.8047 15.9097" fill="url(#paint2_linear_59_9)"/>
<path fill-rule="evenodd" clip-rule="evenodd" d="M17.8046 7.99676L2.5002 0.271754C1.87477 -0.105034 0.936635 -0.105034 0.31249 0.366383L13.3272 11.9539L17.8046 7.99734V7.99676Z" fill="url(#paint3_linear_59_9)"/>
<defs>
<linearGradient id="paint0_linear_59_9" x1="12.1121" y1="22.4376" x2="-8.21343" y2="16.4164" gradientUnits="userSpaceOnUse">
<stop stop-color="#4998D3"/>
<stop offset="0.01" stop-color="#4A99D3"/>
<stop offset="0.26" stop-color="#42BAEB"/>
<stop offset="0.51" stop-color="#41C7F2"/>
<stop offset="0.76" stop-color="#56C9E9"/>
<stop offset="1" stop-color="#5BCAE8"/>
</linearGradient>
<linearGradient id="paint1_linear_59_9" x1="24.6936" y1="11.9397" x2="-0.502019" y2="11.9397" gradientUnits="userSpaceOnUse">
<stop stop-color="#FEE000"/>
<stop offset="0.41" stop-color="#FEBD11"/>
<stop offset="0.78" stop-color="#FAA51A"/>
<stop offset="1" stop-color="#F99B1C"/>
</linearGradient>
<linearGradient id="paint2_linear_59_9" x1="6.60538" y1="17.5217" x2="-7.51808" y2="-8.83197" gradientUnits="userSpaceOnUse">
<stop stop-color="#EF4149"/>
<stop offset="1" stop-color="#C31E63"/>
</linearGradient>
<linearGradient id="paint3_linear_59_9" x1="-11.5272" y1="22.6586" x2="-5.38408" y2="10.8641" gradientUnits="userSpaceOnUse">
<stop stop-color="#32A072"/>
<stop offset="0.07" stop-color="#2CA772"/>
<stop offset="0.48" stop-color="#4BBA71"/>
<stop offset="0.8" stop-color="#5EBD6B"/>
<stop offset="1" stop-color="#66BE69"/>
</linearGradient>
</defs>
</svg>
