<svg width="150" height="150" viewBox="0 0 150 150" fill="none" xmlns="http://www.w3.org/2000/svg">
<circle cx="75" cy="75" r="75" fill="#C6E7FF"/>
<path d="M26.3044 62.0447C26.1808 61.657 26.0146 61.3097 25.8058 61.0028C25.6013 60.6918 25.3563 60.4276 25.0708 60.2102C24.7852 59.9886 24.4593 59.8203 24.0928 59.7053C23.7306 59.5902 23.3321 59.5327 22.8975 59.5327C22.1602 59.5327 21.4955 59.7223 20.9031 60.1016C20.3108 60.4808 19.8421 61.0369 19.4969 61.7699C19.156 62.4986 18.9855 63.3913 18.9855 64.4482C18.9855 65.5092 19.1581 66.4062 19.5033 67.1392C19.8485 67.8722 20.3215 68.4283 20.9223 68.8075C21.5232 69.1868 22.2071 69.3764 22.9742 69.3764C23.6858 69.3764 24.3058 69.2315 24.8343 68.9418C25.3669 68.652 25.7781 68.2429 26.0679 67.7145C26.362 67.1818 26.509 66.5554 26.509 65.8352L27.0203 65.9311H23.2746V64.3011H28.4202V65.7905C28.4202 66.8899 28.1858 67.8445 27.7171 68.6541C27.2526 69.4595 26.6091 70.0817 25.7867 70.5206C24.9685 70.9595 24.031 71.179 22.9742 71.179C21.7895 71.179 20.7497 70.9062 19.8548 70.3608C18.9642 69.8153 18.2696 69.0419 17.771 68.0405C17.2725 67.0348 17.0232 65.8416 17.0232 64.4609C17.0232 63.4169 17.1681 62.4794 17.4578 61.6484C17.7476 60.8175 18.1546 60.1122 18.6787 59.5327C19.2071 58.9489 19.8271 58.5036 20.5388 58.1967C21.2547 57.8857 22.0367 57.7301 22.8847 57.7301C23.5921 57.7301 24.2504 57.8345 24.8598 58.0433C25.4735 58.2521 26.0189 58.5483 26.4962 58.9318C26.9777 59.3153 27.3762 59.7713 27.6915 60.2997C28.0068 60.8239 28.2199 61.4055 28.3307 62.0447H26.3044ZM35.0056 71.1982C34.0383 71.1982 33.2052 70.9915 32.5063 70.5781C31.8117 70.1605 31.2748 69.5746 30.8955 68.8203C30.5205 68.0618 30.333 67.1733 30.333 66.1548C30.333 65.1491 30.5205 64.2628 30.8955 63.4957C31.2748 62.7287 31.8032 62.13 32.4807 61.6996C33.1626 61.2692 33.9594 61.054 34.8714 61.054C35.4253 61.054 35.9623 61.1456 36.4822 61.3288C37.002 61.5121 37.4687 61.7997 37.882 62.1918C38.2954 62.5838 38.6214 63.093 38.86 63.7195C39.0986 64.3416 39.218 65.098 39.218 65.9886V66.6662H31.4133V65.2344H37.3451C37.3451 64.7315 37.2428 64.2862 37.0383 63.8984C36.8337 63.5064 36.5461 63.1974 36.1753 62.9716C35.8089 62.7457 35.3785 62.6328 34.8841 62.6328C34.3472 62.6328 33.8785 62.7649 33.4779 63.0291C33.0816 63.2891 32.7748 63.63 32.5574 64.0518C32.3444 64.4695 32.2378 64.9233 32.2378 65.4134V66.532C32.2378 67.1882 32.3529 67.7464 32.583 68.2067C32.8174 68.6669 33.1434 69.0185 33.561 69.2614C33.9786 69.5 34.4665 69.6193 35.0248 69.6193C35.387 69.6193 35.7172 69.5682 36.0155 69.4659C36.3138 69.3594 36.5716 69.2017 36.789 68.9929C37.0063 68.7841 37.1725 68.5263 37.2876 68.2195L39.0965 68.5455C38.9516 69.0781 38.6917 69.5447 38.3167 69.9453C37.9459 70.3416 37.4793 70.6506 36.9168 70.8722C36.3586 71.0895 35.7215 71.1982 35.0056 71.1982ZM45.9216 61.1818V62.7159H40.5587V61.1818H45.9216ZM41.9969 58.8295H43.9081V68.1172C43.9081 68.4879 43.9635 68.767 44.0743 68.9545C44.1851 69.1378 44.3279 69.2635 44.5026 69.3317C44.6816 69.3956 44.8754 69.4276 45.0843 69.4276C45.2377 69.4276 45.3719 69.4169 45.4869 69.3956C45.602 69.3743 45.6915 69.3572 45.7554 69.3445L46.1006 70.9233C45.9898 70.9659 45.8321 71.0085 45.6276 71.0511C45.423 71.098 45.1673 71.1236 44.8605 71.1278C44.3577 71.1364 43.8889 71.0469 43.4543 70.8594C43.0196 70.6719 42.6681 70.3821 42.3996 69.9901C42.1311 69.598 41.9969 69.1058 41.9969 68.5135V58.8295ZM57.3825 61.1818V62.7159H52.0196V61.1818H57.3825ZM53.4578 58.8295H55.3691V68.1172C55.3691 68.4879 55.4244 68.767 55.5352 68.9545C55.646 69.1378 55.7888 69.2635 55.9635 69.3317C56.1425 69.3956 56.3364 69.4276 56.5452 69.4276C56.6986 69.4276 56.8328 69.4169 56.9479 69.3956C57.0629 69.3743 57.1524 69.3572 57.2164 69.3445L57.5615 70.9233C57.4507 70.9659 57.2931 71.0085 57.0885 71.0511C56.884 71.098 56.6283 71.1236 56.3215 71.1278C55.8186 71.1364 55.3499 71.0469 54.9152 70.8594C54.4806 70.6719 54.129 70.3821 53.8605 69.9901C53.5921 69.598 53.4578 69.1058 53.4578 68.5135V58.8295ZM61.6189 65.1705V71H59.7077V57.9091H61.5933V62.7798H61.7148C61.9449 62.2514 62.2964 61.8317 62.7694 61.5206C63.2425 61.2095 63.8604 61.054 64.6231 61.054C65.2964 61.054 65.8845 61.1925 66.3873 61.4695C66.8944 61.7464 67.2865 62.1598 67.5635 62.7095C67.8447 63.255 67.9854 63.9368 67.9854 64.755V71H66.0741V64.9851C66.0741 64.2649 65.8888 63.7067 65.518 63.3104C65.1473 62.9098 64.6317 62.7095 63.9711 62.7095C63.5194 62.7095 63.1146 62.8054 62.7567 62.9972C62.403 63.1889 62.1238 63.4702 61.9193 63.8409C61.719 64.2074 61.6189 64.6506 61.6189 65.1705ZM74.7673 71.1982C73.8 71.1982 72.9669 70.9915 72.268 70.5781C71.5734 70.1605 71.0365 69.5746 70.6572 68.8203C70.2822 68.0618 70.0947 67.1733 70.0947 66.1548C70.0947 65.1491 70.2822 64.2628 70.6572 63.4957C71.0365 62.7287 71.5649 62.13 72.2425 61.6996C72.9243 61.2692 73.7211 61.054 74.6331 61.054C75.1871 61.054 75.724 61.1456 76.2439 61.3288C76.7638 61.5121 77.2304 61.7997 77.6437 62.1918C78.0571 62.5838 78.3831 63.093 78.6217 63.7195C78.8604 64.3416 78.9797 65.098 78.9797 65.9886V66.6662H71.175V65.2344H77.1068C77.1068 64.7315 77.0045 64.2862 76.8 63.8984C76.5954 63.5064 76.3078 63.1974 75.9371 62.9716C75.5706 62.7457 75.1402 62.6328 74.6459 62.6328C74.1089 62.6328 73.6402 62.7649 73.2396 63.0291C72.8433 63.2891 72.5365 63.63 72.3192 64.0518C72.1061 64.4695 71.9996 64.9233 71.9996 65.4134V66.532C71.9996 67.1882 72.1146 67.7464 72.3447 68.2067C72.5791 68.6669 72.9051 69.0185 73.3227 69.2614C73.7403 69.5 74.2282 69.6193 74.7865 69.6193C75.1487 69.6193 75.479 69.5682 75.7773 69.4659C76.0756 69.3594 76.3334 69.2017 76.5507 68.9929C76.768 68.7841 76.9342 68.5263 77.0493 68.2195L78.8582 68.5455C78.7133 69.0781 78.4534 69.5447 78.0784 69.9453C77.7077 70.3416 77.241 70.6506 76.6785 70.8722C76.1203 71.0895 75.4832 71.1982 74.7673 71.1982ZM94.2631 61.1818L90.7027 71H88.6572L85.0905 61.1818H87.1423L89.6288 68.7372H89.7311L92.2112 61.1818H94.2631ZM96.0592 71V61.1818H97.9704V71H96.0592ZM97.0244 59.6669C96.692 59.6669 96.4065 59.5561 96.1679 59.3345C95.9335 59.1087 95.8163 58.8402 95.8163 58.5291C95.8163 58.2138 95.9335 57.9453 96.1679 57.7237C96.4065 57.4979 96.692 57.3849 97.0244 57.3849C97.3568 57.3849 97.6402 57.4979 97.8746 57.7237C98.1132 57.9453 98.2325 58.2138 98.2325 58.5291C98.2325 58.8402 98.1132 59.1087 97.8746 59.3345C97.6402 59.5561 97.3568 59.6669 97.0244 59.6669ZM107.899 63.5788L106.167 63.8857C106.094 63.6641 105.979 63.4531 105.821 63.2528C105.668 63.0526 105.459 62.8885 105.195 62.7607C104.931 62.6328 104.601 62.5689 104.204 62.5689C103.663 62.5689 103.211 62.6903 102.849 62.9332C102.487 63.1719 102.306 63.4808 102.306 63.8601C102.306 64.1882 102.427 64.4524 102.67 64.6527C102.913 64.853 103.305 65.017 103.846 65.1449L105.406 65.5028C106.309 65.7116 106.983 66.0334 107.426 66.468C107.869 66.9027 108.091 67.4673 108.091 68.1619C108.091 68.75 107.92 69.2741 107.579 69.7344C107.243 70.1903 106.772 70.5483 106.167 70.8082C105.566 71.0682 104.869 71.1982 104.076 71.1982C102.977 71.1982 102.08 70.9638 101.385 70.495C100.691 70.022 100.265 69.3509 100.107 68.4815L101.954 68.2003C102.069 68.6818 102.306 69.0462 102.664 69.2933C103.022 69.5362 103.488 69.6577 104.064 69.6577C104.69 69.6577 105.191 69.5277 105.566 69.2678C105.941 69.0036 106.128 68.6818 106.128 68.3026C106.128 67.9957 106.013 67.7379 105.783 67.5291C105.557 67.3203 105.21 67.1626 104.741 67.0561L103.079 66.6918C102.163 66.483 101.486 66.1506 101.047 65.6946C100.612 65.2386 100.395 64.6612 100.395 63.9624C100.395 63.3828 100.557 62.8757 100.88 62.4411C101.204 62.0064 101.652 61.6676 102.223 61.4247C102.794 61.1776 103.448 61.054 104.185 61.054C105.246 61.054 106.081 61.2841 106.691 61.7443C107.3 62.2003 107.703 62.8118 107.899 63.5788ZM110.192 71V61.1818H112.103V71H110.192ZM111.157 59.6669C110.825 59.6669 110.539 59.5561 110.301 59.3345C110.066 59.1087 109.949 58.8402 109.949 58.5291C109.949 58.2138 110.066 57.9453 110.301 57.7237C110.539 57.4979 110.825 57.3849 111.157 57.3849C111.49 57.3849 111.773 57.4979 112.007 57.7237C112.246 57.9453 112.365 58.2138 112.365 58.5291C112.365 58.8402 112.246 59.1087 112.007 59.3345C111.773 59.5561 111.49 59.6669 111.157 59.6669ZM118.81 71.1982C117.89 71.1982 117.086 70.9872 116.4 70.5653C115.714 70.1435 115.182 69.5533 114.802 68.7947C114.423 68.0362 114.233 67.1499 114.233 66.1357C114.233 65.1172 114.423 64.2266 114.802 63.4638C115.182 62.701 115.714 62.1087 116.4 61.6868C117.086 61.2649 117.89 61.054 118.81 61.054C119.731 61.054 120.534 61.2649 121.22 61.6868C121.906 62.1087 122.439 62.701 122.818 63.4638C123.197 64.2266 123.387 65.1172 123.387 66.1357C123.387 67.1499 123.197 68.0362 122.818 68.7947C122.439 69.5533 121.906 70.1435 121.22 70.5653C120.534 70.9872 119.731 71.1982 118.81 71.1982ZM118.816 69.5938C119.413 69.5938 119.907 69.4361 120.299 69.1207C120.691 68.8054 120.981 68.3857 121.169 67.8615C121.361 67.3374 121.456 66.7599 121.456 66.1293C121.456 65.5028 121.361 64.9276 121.169 64.4034C120.981 63.875 120.691 63.451 120.299 63.1314C119.907 62.8118 119.413 62.652 118.816 62.652C118.216 62.652 117.717 62.8118 117.321 63.1314C116.929 63.451 116.637 63.875 116.445 64.4034C116.258 64.9276 116.164 65.5028 116.164 66.1293C116.164 66.7599 116.258 67.3374 116.445 67.8615C116.637 68.3857 116.929 68.8054 117.321 69.1207C117.717 69.4361 118.216 69.5938 118.816 69.5938ZM127.431 65.1705V71H125.52V61.1818H127.355V62.7798H127.476C127.702 62.2599 128.056 61.8423 128.537 61.527C129.023 61.2116 129.634 61.054 130.372 61.054C131.041 61.054 131.627 61.1946 132.13 61.4759C132.632 61.7528 133.022 62.1662 133.299 62.7159C133.576 63.2656 133.715 63.9453 133.715 64.755V71H131.804V64.9851C131.804 64.2734 131.618 63.7173 131.247 63.3168C130.877 62.9119 130.367 62.7095 129.72 62.7095C129.277 62.7095 128.882 62.8054 128.537 62.9972C128.196 63.1889 127.926 63.4702 127.725 63.8409C127.529 64.2074 127.431 64.6506 127.431 65.1705ZM25.0652 96.6818C24.7797 96.6818 24.5197 96.6584 24.2853 96.6115C24.051 96.5689 23.8762 96.522 23.7612 96.4709L24.2214 94.9048C24.5708 94.9986 24.8819 95.0391 25.1547 95.0263C25.4274 95.0135 25.6681 94.9112 25.877 94.7195C26.09 94.5277 26.2775 94.2145 26.4395 93.7798L26.676 93.1278L23.0836 83.1818H25.1291L27.6156 90.8011H27.7179L30.2044 83.1818H32.2562L28.2101 94.3104C28.0226 94.8217 27.7839 95.2543 27.4941 95.608C27.2044 95.9659 26.8592 96.2344 26.4586 96.4134C26.0581 96.5923 25.5936 96.6818 25.0652 96.6818ZM37.854 93.1982C36.9336 93.1982 36.1303 92.9872 35.4442 92.5653C34.7582 92.1435 34.2255 91.5533 33.8462 90.7947C33.467 90.0362 33.2773 89.1499 33.2773 88.1357C33.2773 87.1172 33.467 86.2266 33.8462 85.4638C34.2255 84.701 34.7582 84.1087 35.4442 83.6868C36.1303 83.2649 36.9336 83.054 37.854 83.054C38.7745 83.054 39.5778 83.2649 40.2638 83.6868C40.9499 84.1087 41.4826 84.701 41.8619 85.4638C42.2411 86.2266 42.4308 87.1172 42.4308 88.1357C42.4308 89.1499 42.2411 90.0362 41.8619 90.7947C41.4826 91.5533 40.9499 92.1435 40.2638 92.5653C39.5778 92.9872 38.7745 93.1982 37.854 93.1982ZM37.8604 91.5938C38.457 91.5938 38.9513 91.4361 39.3434 91.1207C39.7354 90.8054 40.0252 90.3857 40.2127 89.8615C40.4045 89.3374 40.5004 88.7599 40.5004 88.1293C40.5004 87.5028 40.4045 86.9276 40.2127 86.4034C40.0252 85.875 39.7354 85.451 39.3434 85.1314C38.9513 84.8118 38.457 84.652 37.8604 84.652C37.2596 84.652 36.761 84.8118 36.3647 85.1314C35.9727 85.451 35.6808 85.875 35.489 86.4034C35.3015 86.9276 35.2077 87.5028 35.2077 88.1293C35.2077 88.7599 35.3015 89.3374 35.489 89.8615C35.6808 90.3857 35.9727 90.8054 36.3647 91.1207C36.761 91.4361 37.2596 91.5938 37.8604 91.5938ZM50.7836 88.9283V83.1818H52.7012V93H50.8219V91.2997H50.7196C50.4938 91.8239 50.1316 92.2607 49.633 92.6101C49.1387 92.9553 48.5229 93.1278 47.7857 93.1278C47.155 93.1278 46.5968 92.9893 46.111 92.7124C45.6294 92.4311 45.2502 92.0156 44.9732 91.4659C44.7005 90.9162 44.5641 90.2365 44.5641 89.4268V83.1818H46.4753V89.1967C46.4753 89.8658 46.6607 90.3984 47.0314 90.7947C47.4022 91.1911 47.8837 91.3892 48.476 91.3892C48.834 91.3892 49.1898 91.2997 49.5435 91.1207C49.9015 90.9418 50.1976 90.6712 50.432 90.3089C50.6706 89.9467 50.7878 89.4865 50.7836 88.9283ZM63.7083 93.1918C62.9157 93.1918 62.2083 92.9893 61.5861 92.5845C60.9682 92.1754 60.4824 91.5937 60.1287 90.8395C59.7793 90.081 59.6046 89.1712 59.6046 88.1101C59.6046 87.049 59.7814 86.1413 60.1351 85.3871C60.4931 84.6328 60.9831 84.0554 61.6053 83.6548C62.2275 83.2543 62.9327 83.054 63.7211 83.054C64.3304 83.054 64.8205 83.1562 65.1912 83.3608C65.5662 83.5611 65.856 83.7955 66.0605 84.0639C66.2694 84.3324 66.4313 84.5689 66.5463 84.7734H66.6614V79.9091H68.5726V93H66.7061V91.4723H66.5463C66.4313 91.6811 66.2651 91.9197 66.0478 92.1882C65.8347 92.4567 65.5407 92.6911 65.1657 92.8913C64.7907 93.0916 64.3049 93.1918 63.7083 93.1918ZM64.1301 91.5618C64.6799 91.5618 65.1444 91.4169 65.5236 91.1271C65.9071 90.8331 66.1969 90.4261 66.3929 89.9062C66.5932 89.3864 66.6934 88.7812 66.6934 88.0909C66.6934 87.4091 66.5953 86.8125 66.3993 86.3011C66.2033 85.7898 65.9157 85.3913 65.5364 85.1058C65.1571 84.8203 64.6884 84.6776 64.1301 84.6776C63.5549 84.6776 63.0755 84.8267 62.6919 85.125C62.3084 85.4233 62.0186 85.8303 61.8226 86.3459C61.6309 86.8615 61.535 87.4432 61.535 88.0909C61.535 88.7472 61.633 89.3374 61.829 89.8615C62.025 90.3857 62.3148 90.8011 62.6983 91.108C63.0861 91.4105 63.5634 91.5618 64.1301 91.5618ZM75.532 93.1982C74.5646 93.1982 73.7315 92.9915 73.0327 92.5781C72.3381 92.1605 71.8011 91.5746 71.4219 90.8203C71.0469 90.0618 70.8594 89.1733 70.8594 88.1548C70.8594 87.1491 71.0469 86.2628 71.4219 85.4957C71.8011 84.7287 72.3295 84.13 73.0071 83.6996C73.6889 83.2692 74.4858 83.054 75.3977 83.054C75.9517 83.054 76.4886 83.1456 77.0085 83.3288C77.5284 83.5121 77.995 83.7997 78.4084 84.1918C78.8217 84.5838 79.1477 85.093 79.3864 85.7195C79.625 86.3416 79.7443 87.098 79.7443 87.9886V88.6662H71.9396V87.2344H77.8714C77.8714 86.7315 77.7692 86.2862 77.5646 85.8984C77.3601 85.5064 77.0724 85.1974 76.7017 84.9716C76.3352 84.7457 75.9048 84.6328 75.4105 84.6328C74.8736 84.6328 74.4048 84.7649 74.0043 85.0291C73.608 85.2891 73.3011 85.63 73.0838 86.0518C72.8707 86.4695 72.7642 86.9233 72.7642 87.4134V88.532C72.7642 89.1882 72.8793 89.7464 73.1094 90.2067C73.3438 90.6669 73.6697 91.0185 74.0874 91.2614C74.505 91.5 74.9929 91.6193 75.5511 91.6193C75.9134 91.6193 76.2436 91.5682 76.5419 91.4659C76.8402 91.3594 77.098 91.2017 77.3153 90.9929C77.5327 90.7841 77.6989 90.5263 77.8139 90.2195L79.6229 90.5455C79.478 91.0781 79.218 91.5447 78.843 91.9453C78.4723 92.3416 78.0057 92.6506 77.4432 92.8722C76.8849 93.0895 76.2479 93.1982 75.532 93.1982ZM89.2221 85.5788L87.4899 85.8857C87.4174 85.6641 87.3024 85.4531 87.1447 85.2528C86.9913 85.0526 86.7825 84.8885 86.5183 84.7607C86.2541 84.6328 85.9238 84.5689 85.5275 84.5689C84.9863 84.5689 84.5346 84.6903 84.1724 84.9332C83.8102 85.1719 83.6291 85.4808 83.6291 85.8601C83.6291 86.1882 83.7505 86.4524 83.9934 86.6527C84.2363 86.853 84.6284 87.017 85.1696 87.1449L86.7292 87.5028C87.6326 87.7116 88.3059 88.0334 88.7491 88.468C89.1923 88.9027 89.4139 89.4673 89.4139 90.1619C89.4139 90.75 89.2434 91.2741 88.9025 91.7344C88.5659 92.1903 88.095 92.5483 87.4899 92.8082C86.889 93.0682 86.1923 93.1982 85.3997 93.1982C84.3002 93.1982 83.4032 92.9638 82.7086 92.495C82.014 92.022 81.5879 91.3509 81.4302 90.4815L83.2775 90.2003C83.3926 90.6818 83.6291 91.0462 83.987 91.2933C84.345 91.5362 84.8116 91.6577 85.3869 91.6577C86.0133 91.6577 86.514 91.5277 86.889 91.2678C87.264 91.0036 87.4515 90.6818 87.4515 90.3026C87.4515 89.9957 87.3365 89.7379 87.1064 89.5291C86.8805 89.3203 86.5332 89.1626 86.0645 89.0561L84.4025 88.6918C83.4863 88.483 82.8088 88.1506 82.3699 87.6946C81.9352 87.2386 81.7179 86.6612 81.7179 85.9624C81.7179 85.3828 81.8798 84.8757 82.2037 84.4411C82.5275 84.0064 82.975 83.6676 83.546 83.4247C84.117 83.1776 84.7711 83.054 85.5083 83.054C86.5694 83.054 87.4047 83.2841 88.014 83.7443C88.6234 84.2003 89.0261 84.8118 89.2221 85.5788ZM95.7468 93.1982C94.7795 93.1982 93.9464 92.9915 93.2475 92.5781C92.5529 92.1605 92.016 91.5746 91.6367 90.8203C91.2617 90.0618 91.0742 89.1733 91.0742 88.1548C91.0742 87.1491 91.2617 86.2628 91.6367 85.4957C92.016 84.7287 92.5444 84.13 93.2219 83.6996C93.9038 83.2692 94.7006 83.054 95.6126 83.054C96.1665 83.054 96.7035 83.1456 97.2234 83.3288C97.7433 83.5121 98.2099 83.7997 98.6232 84.1918C99.0366 84.5838 99.3626 85.093 99.6012 85.7195C99.8398 86.3416 99.9592 87.098 99.9592 87.9886V88.6662H92.1545V87.2344H98.0863C98.0863 86.7315 97.984 86.2862 97.7795 85.8984C97.5749 85.5064 97.2873 85.1974 96.9165 84.9716C96.5501 84.7457 96.1197 84.6328 95.6254 84.6328C95.0884 84.6328 94.6197 84.7649 94.2191 85.0291C93.8228 85.2891 93.516 85.63 93.2987 86.0518C93.0856 86.4695 92.979 86.9233 92.979 87.4134V88.532C92.979 89.1882 93.0941 89.7464 93.3242 90.2067C93.5586 90.6669 93.8846 91.0185 94.3022 91.2614C94.7198 91.5 95.2077 91.6193 95.766 91.6193C96.1282 91.6193 96.4585 91.5682 96.7567 91.4659C97.055 91.3594 97.3129 91.2017 97.5302 90.9929C97.7475 90.7841 97.9137 90.5263 98.0288 90.2195L99.8377 90.5455C99.6928 91.0781 99.4329 91.5447 99.0579 91.9453C98.6871 92.3416 98.2205 92.6506 97.658 92.8722C97.0998 93.0895 96.4627 93.1982 95.7468 93.1982ZM102.08 93V83.1818H103.927V84.7415H104.029C104.208 84.2131 104.524 83.7976 104.975 83.495C105.431 83.1882 105.947 83.0348 106.522 83.0348C106.642 83.0348 106.782 83.0391 106.944 83.0476C107.11 83.0561 107.24 83.0668 107.334 83.0795V84.9077C107.257 84.8864 107.121 84.8629 106.925 84.8374C106.729 84.8075 106.533 84.7926 106.337 84.7926C105.885 84.7926 105.482 84.8885 105.129 85.0803C104.779 85.2678 104.502 85.5298 104.298 85.8665C104.093 86.1989 103.991 86.5781 103.991 87.0043V93H102.08ZM117.686 83.1818L114.126 93H112.08L108.513 83.1818H110.565L113.052 90.7372H113.154L115.634 83.1818H117.686ZM123.38 93.1982C122.412 93.1982 121.579 92.9915 120.88 92.5781C120.186 92.1605 119.649 91.5746 119.27 90.8203C118.895 90.0618 118.707 89.1733 118.707 88.1548C118.707 87.1491 118.895 86.2628 119.27 85.4957C119.649 84.7287 120.177 84.13 120.855 83.6996C121.537 83.2692 122.333 83.054 123.245 83.054C123.799 83.054 124.336 83.1456 124.856 83.3288C125.376 83.5121 125.843 83.7997 126.256 84.1918C126.669 84.5838 126.995 85.093 127.234 85.7195C127.473 86.3416 127.592 87.098 127.592 87.9886V88.6662H119.787V87.2344H125.719C125.719 86.7315 125.617 86.2862 125.412 85.8984C125.208 85.5064 124.92 85.1974 124.549 84.9716C124.183 84.7457 123.752 84.6328 123.258 84.6328C122.721 84.6328 122.252 84.7649 121.852 85.0291C121.456 85.2891 121.149 85.63 120.931 86.0518C120.718 86.4695 120.612 86.9233 120.612 87.4134V88.532C120.612 89.1882 120.727 89.7464 120.957 90.2067C121.191 90.6669 121.517 91.0185 121.935 91.2614C122.353 91.5 122.841 91.6193 123.399 91.6193C123.761 91.6193 124.091 91.5682 124.39 91.4659C124.688 91.3594 124.946 91.2017 125.163 90.9929C125.38 90.7841 125.547 90.5263 125.662 90.2195L127.471 90.5455C127.326 91.0781 127.066 91.5447 126.691 91.9453C126.32 92.3416 125.853 92.6506 125.291 92.8722C124.733 93.0895 124.096 93.1982 123.38 93.1982Z" fill="black"/>
</svg>
